<svg width="388" height="282" viewBox="0 0 388 282" fill="none" xmlns="http://www.w3.org/2000/svg">
<g opacity="0.5">
<path d="M388 16.6281V265.372C388 274.491 380.491 282 371.372 282H16.628C7.50944 282 0 274.491 0 265.372V16.6281C0 7.50947 7.50944 0 16.628 0H371.372C380.491 0 388 7.50947 388 16.6281Z" fill="url(#paint0_linear_1575_95959)"/>
<rect x="121.46" y="51.3564" width="247.478" height="108.812" rx="2" fill="#F1F3F9"/>
<rect x="121.46" y="179.953" width="75.8932" height="79.1363" rx="2" fill="#F1F3F9"/>
<rect x="210.552" y="179.953" width="69.2938" height="79.1363" rx="2" fill="#F1F3F9"/>
<rect x="293.045" y="179.953" width="75.8932" height="79.1363" rx="2" fill="#F1F3F9"/>
<path d="M22.4686 61.2485H75.2639" stroke="#D6DCE8" stroke-width="2" stroke-miterlimit="10"/>
<path d="M22.4686 87.6274H65.3648" stroke="#D6DCE8" stroke-width="2" stroke-miterlimit="10"/>
<path d="M134.659 209.629H180.855" stroke="#D6DCE8" stroke-width="2" stroke-miterlimit="10"/>
<path d="M223.751 209.629H269.946" stroke="#D6DCE8" stroke-width="2" stroke-miterlimit="10"/>
<path d="M309.543 209.629H355.739" stroke="#D6DCE8" stroke-width="2" stroke-miterlimit="10"/>
<path d="M134.659 226.116H170.956" stroke="#D6DCE8" stroke-width="2" stroke-miterlimit="10"/>
<path d="M223.751 226.116H260.047" stroke="#D6DCE8" stroke-width="2" stroke-miterlimit="10"/>
<path d="M309.543 226.116H345.84" stroke="#D6DCE8" stroke-width="2" stroke-miterlimit="10"/>
<path d="M22.4686 114.006H78.5636" stroke="#D6DCE8" stroke-width="2" stroke-miterlimit="10"/>
<path d="M22.4686 140.385H45.5666" stroke="#D6DCE8" stroke-width="2" stroke-miterlimit="10"/>
<path d="M22.4686 166.764H68.6645" stroke="#D6DCE8" stroke-width="2" stroke-miterlimit="10"/>
<path d="M22.4686 193.142H52.166" stroke="#D6DCE8" stroke-width="2" stroke-miterlimit="10"/>
<path d="M388 16.6281V28.6969H0V16.6281C0 7.50947 7.50944 0 16.628 0H371.372C380.491 0 388 7.50947 388 16.6281Z" fill="#9A9FA5"/>
<path d="M17.4321 19.5783C20.2464 19.5783 22.5278 17.2969 22.5278 14.4826C22.5278 11.6683 20.2464 9.3869 17.4321 9.3869C14.6178 9.3869 12.3364 11.6683 12.3364 14.4826C12.3364 17.2969 14.6178 19.5783 17.4321 19.5783Z" fill="#EAEEF9"/>
<path opacity="0.6" d="M33.2555 19.5783C36.0698 19.5783 38.3512 17.2969 38.3512 14.4826C38.3512 11.6683 36.0698 9.3869 33.2555 9.3869C30.4412 9.3869 28.1598 11.6683 28.1598 14.4826C28.1598 17.2969 30.4412 19.5783 33.2555 19.5783Z" fill="#EAEEF9"/>
<path opacity="0.4" d="M49.3481 19.5783C52.1624 19.5783 54.4438 17.2969 54.4438 14.4826C54.4438 11.6683 52.1624 9.3869 49.3481 9.3869C46.5339 9.3869 44.2524 11.6683 44.2524 14.4826C44.2524 17.2969 46.5339 19.5783 49.3481 19.5783Z" fill="#EAEEF9"/>
<path d="M207.172 168.054H178.496C175.337 168.054 172.785 165.461 172.785 162.251V121.872C172.785 110.636 181.777 101.622 192.713 101.622C203.648 101.622 212.64 110.759 212.64 121.872V162.374C212.762 165.461 210.21 168.054 207.172 168.054ZM184.207 156.57H201.461V121.872C201.461 117.057 197.573 113.105 192.834 113.105C188.095 113.105 184.207 117.057 184.207 121.872V156.57Z" fill="#9A9FA5"/>
<path d="M219.325 179.126H166.104C162.49 179.126 159.499 176.12 159.499 172.489V137.047C159.499 133.415 162.49 130.409 166.104 130.409H219.325C222.94 130.409 225.931 133.415 225.931 137.047V172.489C225.931 176.12 222.94 179.126 219.325 179.126Z" fill="#9A9FA5"/>
<path d="M199.357 148.591C199.357 151.356 197.881 153.726 195.79 154.911V162.548C195.79 164.391 194.437 165.84 192.714 165.84C190.992 165.84 189.639 164.391 189.639 162.548V154.911C187.547 153.726 186.071 151.356 186.071 148.591C186.071 144.641 189.024 141.481 192.714 141.481C196.405 141.481 199.357 144.641 199.357 148.591Z" fill="white"/>
</g>
<defs>
<linearGradient id="paint0_linear_1575_95959" x1="193.874" y1="-6.52293" x2="193.874" y2="285.04" gradientUnits="userSpaceOnUse">
<stop stop-color="#FDFEFF"/>
<stop offset="0.9964" stop-color="#ECF0F5"/>
</linearGradient>
</defs>
</svg>
