<svg width="48" height="48" viewBox="0 0 48 48" fill="none" xmlns="http://www.w3.org/2000/svg">
<path d="M45.1734 25.8483C44.6259 24.8485 43.8783 24.0333 42.9411 23.3976C44.0731 22.1158 44.6417 20.6187 44.6417 18.9113C44.6417 17.0041 43.9467 15.3736 42.5621 14.0252C41.1774 12.6768 39.5032 12 37.5447 12H13V18.009H35.3966C35.8652 18.009 36.2706 18.173 36.6075 18.496C36.9445 18.8191 37.113 19.2087 37.113 19.6702C37.113 20.1316 36.9445 20.5213 36.6075 20.8494C36.2706 21.1775 35.8652 21.3416 35.3966 21.3416H13V26.6635H36.7707C37.2393 26.6635 37.6394 26.8276 37.9764 27.1557C38.3081 27.4839 38.4765 27.8787 38.4765 28.335C38.4765 28.7913 38.3081 29.1861 37.9764 29.5142C37.6447 29.8423 37.2446 30.0064 36.7707 30.0064H26.9992V36H38.903C40.8615 36 42.5357 35.3232 43.9204 33.9748C45.305 32.6264 46 30.9959 46 29.0887C46 27.9299 45.7262 26.8481 45.1734 25.8483Z" fill="#EFEFEF"/>
<path d="M24 30.0077H9.88369V13.1123V12H2V36H24V30.0077Z" fill="#FC4C02"/>
</svg>
