<svg width="115" height="36" viewBox="0 0 115 36" fill="none" xmlns="http://www.w3.org/2000/svg">
<g clip-path="url(#clip0_1528_186569)">
<path d="M34.2093 27.0572C34.8208 27.4861 35.3111 28.0368 35.6702 28.7093C36.0294 29.3819 36.209 30.108 36.209 30.8926C36.209 32.1792 35.7576 33.2757 34.85 34.1822C33.9423 35.0935 32.8502 35.5467 31.5737 35.5467H0V19.3816H30.6806C31.962 19.3816 33.0541 19.8348 33.9569 20.7462C34.8645 21.6575 35.3159 22.754 35.3159 24.0357C35.3159 25.1858 34.947 26.1946 34.2044 27.0572H34.2093ZM29.2827 23.4265H4.91685V25.6683H29.2778C29.5836 25.6683 29.8506 25.5562 30.069 25.3369C30.2874 25.1176 30.3991 24.8496 30.3991 24.5426C30.3991 24.2355 30.2874 23.9724 30.069 23.7531C29.8457 23.5338 29.5836 23.4265 29.2778 23.4265H29.2827ZM30.1806 31.5067C30.4864 31.5067 30.7485 31.3946 30.967 31.1753C31.1854 30.956 31.2922 30.6879 31.2922 30.3809C31.2922 30.0739 31.1854 29.8059 30.967 29.5865C30.7485 29.3672 30.4864 29.2552 30.1806 29.2552H4.91685V31.5116H30.1758L30.1806 31.5067Z" fill="white"/>
<path d="M72.0251 30.3857L74.7432 35.5467H69.1954L67.0743 31.5115H43.2958V35.5467H38.3789V19.3815H68.5353C69.3507 19.3815 70.1322 19.5424 70.8748 19.864C71.6174 20.1856 72.263 20.6194 72.8017 21.1603C73.3405 21.7013 73.7676 22.3446 74.088 23.0951C74.4083 23.8407 74.5636 24.6253 74.5636 25.4441C74.5636 26.4431 74.3355 27.374 73.8841 28.2414C73.4327 29.104 72.8114 29.8204 72.0251 30.3809V30.3857ZM67.6373 27.4665C68.1907 27.4665 68.6663 27.2716 69.0595 26.8769C69.4526 26.4821 69.6468 26.0094 69.6468 25.4489C69.6468 24.8885 69.4526 24.4158 69.0595 24.021C68.6663 23.6263 68.1907 23.4313 67.6373 23.4313H43.2958V27.4665H67.6373Z" fill="white"/>
<path d="M104.719 18.9431C106.432 18.9431 107.913 19.0942 109.16 19.3963C110.408 19.6985 111.471 20.181 112.359 20.8438C113.247 21.5065 113.907 22.3886 114.344 23.4851C114.781 24.5817 114.999 25.9072 114.999 27.4619C114.999 28.7923 114.854 29.9473 114.563 30.9269C114.271 31.9064 113.854 32.7203 113.315 33.3685C112.776 34.0166 112.077 34.5332 111.213 34.9231C110.354 35.313 109.403 35.5907 108.359 35.7516C107.321 35.9124 106.102 35.9952 104.709 35.9952H86.8379C85.5274 35.9952 84.3673 35.9173 83.3529 35.7564C82.3384 35.6005 81.3968 35.3227 80.5231 34.928C79.6495 34.5332 78.9311 34.0166 78.3632 33.3733C77.7953 32.73 77.3488 31.9162 77.0333 30.9269C76.7129 29.9376 76.5576 28.7826 76.5576 27.4619C76.5576 25.9072 76.776 24.5817 77.208 23.4851C77.64 22.3886 78.305 21.5065 79.1884 20.8438C80.0717 20.181 81.1396 19.6936 82.387 19.3963C83.6344 19.0942 85.1148 18.9431 86.8379 18.9431H104.709H104.719ZM104.719 31.9503C105.544 31.9503 106.238 31.8869 106.811 31.7554C107.384 31.6238 107.889 31.3947 108.33 31.0633C108.772 30.7319 109.097 30.269 109.311 29.6793C109.524 29.0847 109.631 28.3488 109.631 27.4716C109.631 26.5944 109.529 25.8488 109.32 25.2542C109.117 24.6645 108.791 24.2064 108.355 23.875C107.918 23.5436 107.408 23.3146 106.835 23.183C106.258 23.0514 105.554 22.9881 104.714 22.9881H86.8427C86.0127 22.9881 85.3089 23.0563 84.7313 23.183C84.1537 23.3146 83.649 23.5436 83.2121 23.875C82.7753 24.2064 82.4501 24.6645 82.2365 25.2542C82.0229 25.8439 81.9162 26.5846 81.9162 27.4716C81.9162 28.3586 82.0229 29.0945 82.2365 29.689C82.4501 30.2787 82.7753 30.7368 83.2121 31.0682C83.649 31.3996 84.1586 31.6286 84.7313 31.7602C85.3089 31.8918 86.0127 31.9552 86.8427 31.9552H104.714L104.719 31.9503Z" fill="white"/>
<path d="M43.1348 12.7001H64.671V16.9254H37.985V0H64.671V4.23501H43.1348V6.35007H63.7293V10.5753H43.1348V12.7001Z" fill="white"/>
<path d="M5.14983 12.7001H35.5732V16.9254H0V0H5.14983V12.7001Z" fill="white"/>
<path d="M115.005 0H66.9385V16.9254H115.005V0Z" fill="#FC4C02"/>
<path d="M110.927 6.4962C110.709 5.95038 110.379 5.51177 109.932 5.18525C109.486 4.85386 108.952 4.61506 108.331 4.46398C107.709 4.31291 106.967 4.23981 106.108 4.23981H91.8229V12.7001H106.108C106.806 12.7001 107.413 12.6611 107.933 12.5831C108.452 12.5051 108.928 12.3687 109.36 12.1737C109.792 11.9788 110.141 11.7205 110.413 11.3989C110.685 11.0772 110.888 10.6727 111.034 10.1903C111.18 9.70292 111.253 9.13273 111.253 8.46994C111.253 7.69994 111.146 7.04203 110.927 6.4962ZM108.564 9.3764C108.481 9.62982 108.374 9.8345 108.233 9.98558C108.093 10.1367 107.913 10.2634 107.685 10.356C107.462 10.4486 107.224 10.5119 106.981 10.5411C106.739 10.5704 106.447 10.5899 106.108 10.5899H94.4003V6.35487H106.108C106.447 6.35487 106.743 6.36949 106.991 6.40361C107.238 6.43285 107.471 6.4962 107.695 6.5888C107.918 6.68139 108.098 6.80323 108.233 6.95918C108.369 7.11513 108.481 7.31981 108.559 7.56836C108.641 7.82178 108.68 8.11905 108.68 8.46994C108.68 8.82083 108.641 9.12298 108.559 9.3764H108.564Z" fill="white"/>
<path d="M82.0237 4.23511H78.7523L69.6224 12.7002H73.1317L74.151 11.7597H86.6348L87.6444 12.7002H91.1537L82.0237 4.23511ZM76.4274 9.63974L80.388 5.97005L84.3438 9.63974H76.4274Z" fill="white"/>
</g>
<defs>
<clipPath id="clip0_1528_186569">
<rect width="115" height="36" fill="white"/>
</clipPath>
</defs>
</svg>
