<svg width="44" height="24" viewBox="0 0 44 24" fill="none" xmlns="http://www.w3.org/2000/svg">
<path d="M22 18.0077H7.88369V1.11235V0H0V24H22V18.0077Z" fill="#FC4C02"/>
<path d="M43.1734 13.8483C42.6259 12.8485 41.8783 12.0333 40.9411 11.3976C42.0731 10.1158 42.6417 8.61867 42.6417 6.91134C42.6417 5.00406 41.9467 3.37364 40.5621 2.02521C39.1774 0.676778 37.5032 0 35.5447 0H11V6.00897H33.3966C33.8652 6.00897 34.2706 6.17304 34.6075 6.49605C34.9445 6.81906 35.113 7.20872 35.113 7.67016C35.113 8.1316 34.9445 8.52126 34.6075 8.84939C34.2706 9.17753 33.8652 9.34159 33.3966 9.34159H11V14.6635H34.7707C35.2393 14.6635 35.6394 14.8276 35.9764 15.1557C36.3081 15.4839 36.4765 15.8787 36.4765 16.335C36.4765 16.7913 36.3081 17.1861 35.9764 17.5142C35.6447 17.8423 35.2446 18.0064 34.7707 18.0064H24.9992V24H36.903C38.8615 24 40.5357 23.3232 41.9204 21.9748C43.305 20.6264 44 18.9959 44 17.0887C44 15.9299 43.7262 14.8481 43.1734 13.8483Z" fill="#06038D"/>
</svg>
